<svg width="1920" height="342" viewBox="0 0 1920 342" fill="none" xmlns="http://www.w3.org/2000/svg">
<mask id="mask0_4391_25554" style="mask-type:alpha" maskUnits="userSpaceOnUse" x="0" y="0" width="1920" height="346">
<path d="M1920 112.162V346H0.00012207V0L1920 112.162Z" fill="#D9D9D9"/>
</mask>
<g mask="url(#mask0_4391_25554)">
<foreignObject x="-40.0039" y="-346" width="217.145" height="731.68"><div xmlns="http://www.w3.org/1999/xhtml" style="backdrop-filter:blur(20px);clip-path:url(#bgblur_0_4391_25554_clip_path);height:100%;width:100%"></div></foreignObject><path data-figma-bg-blur-radius="40" d="M137.141 345.68L-0.00203151 345.68L-0.00214545 -306L137.141 -306L137.141 345.68Z" fill="url(#paint0_linear_4391_25554)" fill-opacity="0.6"/>
<foreignObject x="97.1445" y="-346" width="217.145" height="731.68"><div xmlns="http://www.w3.org/1999/xhtml" style="backdrop-filter:blur(20px);clip-path:url(#bgblur_1_4391_25554_clip_path);height:100%;width:100%"></div></foreignObject><path data-figma-bg-blur-radius="40" d="M274.289 345.68L137.146 345.68L137.146 -306L274.289 -306L274.289 345.68Z" fill="url(#paint1_linear_4391_25554)" fill-opacity="0.6"/>
<foreignObject x="234.287" y="-346" width="217.145" height="731.68"><div xmlns="http://www.w3.org/1999/xhtml" style="backdrop-filter:blur(20px);clip-path:url(#bgblur_2_4391_25554_clip_path);height:100%;width:100%"></div></foreignObject><path data-figma-bg-blur-radius="40" d="M411.432 345.68L274.289 345.68L274.289 -306L411.432 -306L411.432 345.68Z" fill="url(#paint2_linear_4391_25554)" fill-opacity="0.6"/>
<foreignObject x="371.428" y="-346" width="217.145" height="731.68"><div xmlns="http://www.w3.org/1999/xhtml" style="backdrop-filter:blur(20px);clip-path:url(#bgblur_3_4391_25554_clip_path);height:100%;width:100%"></div></foreignObject><path data-figma-bg-blur-radius="40" d="M548.572 345.68L411.43 345.68L411.429 -306L548.572 -306L548.572 345.68Z" fill="url(#paint3_linear_4391_25554)" fill-opacity="0.6"/>
<foreignObject x="508.57" y="-346" width="217.145" height="731.68"><div xmlns="http://www.w3.org/1999/xhtml" style="backdrop-filter:blur(20px);clip-path:url(#bgblur_4_4391_25554_clip_path);height:100%;width:100%"></div></foreignObject><path data-figma-bg-blur-radius="40" d="M685.715 345.68L548.572 345.68L548.572 -306L685.715 -306L685.715 345.68Z" fill="url(#paint4_linear_4391_25554)" fill-opacity="0.6"/>
<foreignObject x="645.715" y="-346" width="217.145" height="731.68"><div xmlns="http://www.w3.org/1999/xhtml" style="backdrop-filter:blur(20px);clip-path:url(#bgblur_5_4391_25554_clip_path);height:100%;width:100%"></div></foreignObject><path data-figma-bg-blur-radius="40" d="M822.859 345.68L685.717 345.68L685.717 -306L822.859 -306L822.859 345.68Z" fill="url(#paint5_linear_4391_25554)" fill-opacity="0.6"/>
<foreignObject x="782.855" y="-346" width="217.145" height="731.68"><div xmlns="http://www.w3.org/1999/xhtml" style="backdrop-filter:blur(20px);clip-path:url(#bgblur_6_4391_25554_clip_path);height:100%;width:100%"></div></foreignObject><path data-figma-bg-blur-radius="40" d="M960 345.68L822.857 345.68L822.857 -306L960 -306L960 345.68Z" fill="url(#paint6_linear_4391_25554)" fill-opacity="0.6"/>
<foreignObject x="920" y="-346" width="217.145" height="731.68"><div xmlns="http://www.w3.org/1999/xhtml" style="backdrop-filter:blur(20px);clip-path:url(#bgblur_7_4391_25554_clip_path);height:100%;width:100%"></div></foreignObject><path data-figma-bg-blur-radius="40" d="M1097.14 345.68L960.002 345.68L960.002 -306L1097.14 -306L1097.14 345.68Z" fill="url(#paint7_linear_4391_25554)" fill-opacity="0.6"/>
<foreignObject x="1057.14" y="-346" width="217.145" height="731.68"><div xmlns="http://www.w3.org/1999/xhtml" style="backdrop-filter:blur(20px);clip-path:url(#bgblur_8_4391_25554_clip_path);height:100%;width:100%"></div></foreignObject><path data-figma-bg-blur-radius="40" d="M1234.29 345.68L1097.14 345.68L1097.14 -306L1234.29 -306L1234.29 345.68Z" fill="url(#paint8_linear_4391_25554)" fill-opacity="0.6"/>
<foreignObject x="1194.29" y="-346" width="217.145" height="731.68"><div xmlns="http://www.w3.org/1999/xhtml" style="backdrop-filter:blur(20px);clip-path:url(#bgblur_9_4391_25554_clip_path);height:100%;width:100%"></div></foreignObject><path data-figma-bg-blur-radius="40" d="M1371.43 345.68L1234.29 345.68L1234.29 -306L1371.43 -306L1371.43 345.68Z" fill="url(#paint9_linear_4391_25554)" fill-opacity="0.6"/>
<foreignObject x="1331.43" y="-346" width="217.145" height="731.68"><div xmlns="http://www.w3.org/1999/xhtml" style="backdrop-filter:blur(20px);clip-path:url(#bgblur_10_4391_25554_clip_path);height:100%;width:100%"></div></foreignObject><path data-figma-bg-blur-radius="40" d="M1508.57 345.68L1371.43 345.68L1371.43 -306L1508.57 -306L1508.57 345.68Z" fill="url(#paint10_linear_4391_25554)" fill-opacity="0.6"/>
<foreignObject x="1468.57" y="-346" width="217.145" height="731.68"><div xmlns="http://www.w3.org/1999/xhtml" style="backdrop-filter:blur(20px);clip-path:url(#bgblur_11_4391_25554_clip_path);height:100%;width:100%"></div></foreignObject><path data-figma-bg-blur-radius="40" d="M1645.71 345.68L1508.57 345.68L1508.57 -306L1645.71 -306L1645.71 345.68Z" fill="url(#paint11_linear_4391_25554)" fill-opacity="0.6"/>
<foreignObject x="1605.71" y="-346" width="217.145" height="731.68"><div xmlns="http://www.w3.org/1999/xhtml" style="backdrop-filter:blur(20px);clip-path:url(#bgblur_12_4391_25554_clip_path);height:100%;width:100%"></div></foreignObject><path data-figma-bg-blur-radius="40" d="M1782.86 345.68L1645.71 345.68L1645.71 -306L1782.86 -306L1782.86 345.68Z" fill="url(#paint12_linear_4391_25554)" fill-opacity="0.6"/>
<foreignObject x="1742.86" y="-345.938" width="217.145" height="731.68"><div xmlns="http://www.w3.org/1999/xhtml" style="backdrop-filter:blur(20px);clip-path:url(#bgblur_13_4391_25554_clip_path);height:100%;width:100%"></div></foreignObject><path data-figma-bg-blur-radius="40" d="M1920 345.742L1782.86 345.742L1782.86 -305.937L1920 -305.937L1920 345.742Z" fill="url(#paint13_linear_4391_25554)" fill-opacity="0.6"/>
</g>
<defs>
<clipPath id="bgblur_0_4391_25554_clip_path" transform="translate(40.0039 346)"><path d="M137.141 345.68L-0.00203151 345.68L-0.00214545 -306L137.141 -306L137.141 345.68Z"/>
</clipPath><clipPath id="bgblur_1_4391_25554_clip_path" transform="translate(-97.1445 346)"><path d="M274.289 345.68L137.146 345.68L137.146 -306L274.289 -306L274.289 345.68Z"/>
</clipPath><clipPath id="bgblur_2_4391_25554_clip_path" transform="translate(-234.287 346)"><path d="M411.432 345.68L274.289 345.68L274.289 -306L411.432 -306L411.432 345.68Z"/>
</clipPath><clipPath id="bgblur_3_4391_25554_clip_path" transform="translate(-371.428 346)"><path d="M548.572 345.68L411.43 345.68L411.429 -306L548.572 -306L548.572 345.68Z"/>
</clipPath><clipPath id="bgblur_4_4391_25554_clip_path" transform="translate(-508.57 346)"><path d="M685.715 345.68L548.572 345.68L548.572 -306L685.715 -306L685.715 345.68Z"/>
</clipPath><clipPath id="bgblur_5_4391_25554_clip_path" transform="translate(-645.715 346)"><path d="M822.859 345.68L685.717 345.68L685.717 -306L822.859 -306L822.859 345.68Z"/>
</clipPath><clipPath id="bgblur_6_4391_25554_clip_path" transform="translate(-782.855 346)"><path d="M960 345.68L822.857 345.68L822.857 -306L960 -306L960 345.68Z"/>
</clipPath><clipPath id="bgblur_7_4391_25554_clip_path" transform="translate(-920 346)"><path d="M1097.14 345.68L960.002 345.68L960.002 -306L1097.14 -306L1097.14 345.68Z"/>
</clipPath><clipPath id="bgblur_8_4391_25554_clip_path" transform="translate(-1057.14 346)"><path d="M1234.29 345.68L1097.14 345.68L1097.14 -306L1234.29 -306L1234.29 345.68Z"/>
</clipPath><clipPath id="bgblur_9_4391_25554_clip_path" transform="translate(-1194.29 346)"><path d="M1371.43 345.68L1234.29 345.68L1234.29 -306L1371.43 -306L1371.43 345.68Z"/>
</clipPath><clipPath id="bgblur_10_4391_25554_clip_path" transform="translate(-1331.43 346)"><path d="M1508.57 345.68L1371.43 345.68L1371.43 -306L1508.57 -306L1508.57 345.68Z"/>
</clipPath><clipPath id="bgblur_11_4391_25554_clip_path" transform="translate(-1468.57 346)"><path d="M1645.71 345.68L1508.57 345.68L1508.57 -306L1645.71 -306L1645.71 345.68Z"/>
</clipPath><clipPath id="bgblur_12_4391_25554_clip_path" transform="translate(-1605.71 346)"><path d="M1782.86 345.68L1645.71 345.68L1645.71 -306L1782.86 -306L1782.86 345.68Z"/>
</clipPath><clipPath id="bgblur_13_4391_25554_clip_path" transform="translate(-1742.86 345.938)"><path d="M1920 345.742L1782.86 345.742L1782.86 -305.937L1920 -305.937L1920 345.742Z"/>
</clipPath><linearGradient id="paint0_linear_4391_25554" x1="133.045" y1="345.68" x2="-195.492" y2="306.793" gradientUnits="userSpaceOnUse">
<stop stop-color="white" stop-opacity="0.6"/>
<stop offset="1" stop-color="#C4C4C4" stop-opacity="0.1"/>
</linearGradient>
<linearGradient id="paint1_linear_4391_25554" x1="270.194" y1="345.68" x2="-58.3437" y2="306.793" gradientUnits="userSpaceOnUse">
<stop stop-color="white" stop-opacity="0.6"/>
<stop offset="1" stop-color="#C4C4C4" stop-opacity="0.1"/>
</linearGradient>
<linearGradient id="paint2_linear_4391_25554" x1="407.336" y1="345.68" x2="78.7989" y2="306.793" gradientUnits="userSpaceOnUse">
<stop stop-color="white" stop-opacity="0.6"/>
<stop offset="1" stop-color="#C4C4C4" stop-opacity="0.1"/>
</linearGradient>
<linearGradient id="paint3_linear_4391_25554" x1="544.477" y1="345.68" x2="215.939" y2="306.793" gradientUnits="userSpaceOnUse">
<stop stop-color="white" stop-opacity="0.6"/>
<stop offset="1" stop-color="#C4C4C4" stop-opacity="0.1"/>
</linearGradient>
<linearGradient id="paint4_linear_4391_25554" x1="681.62" y1="345.68" x2="353.082" y2="306.793" gradientUnits="userSpaceOnUse">
<stop stop-color="white" stop-opacity="0.6"/>
<stop offset="1" stop-color="#C4C4C4" stop-opacity="0.1"/>
</linearGradient>
<linearGradient id="paint5_linear_4391_25554" x1="818.764" y1="345.68" x2="490.227" y2="306.793" gradientUnits="userSpaceOnUse">
<stop stop-color="white" stop-opacity="0.6"/>
<stop offset="1" stop-color="#C4C4C4" stop-opacity="0.1"/>
</linearGradient>
<linearGradient id="paint6_linear_4391_25554" x1="955.905" y1="345.68" x2="627.367" y2="306.793" gradientUnits="userSpaceOnUse">
<stop stop-color="white" stop-opacity="0.6"/>
<stop offset="1" stop-color="#C4C4C4" stop-opacity="0.1"/>
</linearGradient>
<linearGradient id="paint7_linear_4391_25554" x1="1093.05" y1="345.68" x2="764.512" y2="306.793" gradientUnits="userSpaceOnUse">
<stop stop-color="white" stop-opacity="0.6"/>
<stop offset="1" stop-color="#C4C4C4" stop-opacity="0.1"/>
</linearGradient>
<linearGradient id="paint8_linear_4391_25554" x1="1230.19" y1="345.68" x2="901.652" y2="306.793" gradientUnits="userSpaceOnUse">
<stop stop-color="white" stop-opacity="0.6"/>
<stop offset="1" stop-color="#C4C4C4" stop-opacity="0.1"/>
</linearGradient>
<linearGradient id="paint9_linear_4391_25554" x1="1367.34" y1="345.68" x2="1038.8" y2="306.793" gradientUnits="userSpaceOnUse">
<stop stop-color="white" stop-opacity="0.6"/>
<stop offset="1" stop-color="#C4C4C4" stop-opacity="0.1"/>
</linearGradient>
<linearGradient id="paint10_linear_4391_25554" x1="1504.48" y1="345.68" x2="1175.94" y2="306.793" gradientUnits="userSpaceOnUse">
<stop stop-color="white" stop-opacity="0.6"/>
<stop offset="1" stop-color="#C4C4C4" stop-opacity="0.1"/>
</linearGradient>
<linearGradient id="paint11_linear_4391_25554" x1="1641.62" y1="345.68" x2="1313.08" y2="306.793" gradientUnits="userSpaceOnUse">
<stop stop-color="white" stop-opacity="0.6"/>
<stop offset="1" stop-color="#C4C4C4" stop-opacity="0.1"/>
</linearGradient>
<linearGradient id="paint12_linear_4391_25554" x1="1778.76" y1="345.68" x2="1450.22" y2="306.793" gradientUnits="userSpaceOnUse">
<stop stop-color="white" stop-opacity="0.6"/>
<stop offset="1" stop-color="#C4C4C4" stop-opacity="0.1"/>
</linearGradient>
<linearGradient id="paint13_linear_4391_25554" x1="1915.9" y1="345.742" x2="1587.37" y2="306.855" gradientUnits="userSpaceOnUse">
<stop stop-color="white" stop-opacity="0.6"/>
<stop offset="1" stop-color="#C4C4C4" stop-opacity="0.1"/>
</linearGradient>
</defs>
</svg>
