<svg preserveAspectRatio="none" overflow="visible" style="display: block;" width="36" height="36" viewBox="0 0 36 36" fill="none" xmlns="http://www.w3.org/2000/svg">
<g id="Group 632182">
<path id="Vector" d="M0 4C0 1.79086 1.79086 0 4 0H32C34.2091 0 36 1.79086 36 4V32C36 34.2091 34.2091 36 32 36H4C1.79086 36 0 34.2091 0 32V4Z" fill="#131313"/>
<g id="Group 631979">
<path id="Vector_2" d="M16.5465 8C16.7733 8.05009 27.0013 15.5761 28.0004 16.3035L28.0002 28C25.6323 27.8508 22.6464 27.4427 20.2478 27.1852C20.0254 27.1398 19.3476 27.0862 19.0727 27.0568L16.4546 26.7804L8.00493 25.8688L8.00612 18.2681C8.0046 16.9851 7.98553 15.6929 8.02644 14.4118C8.04122 13.9482 8.4689 13.2586 8.75092 12.8931C10.644 10.4396 13.67 8.9693 16.5465 8Z" fill="#FEFEFE"/>
</g>
</g>
</svg>
